<?xml version="1.0" encoding="UTF-8" standalone="no"?>
<svg
xmlns="http://www.w3.org/2000/svg"
version="1.0"
width="2000" height="2000"
id="1_42_t0_A5.svg">
<g style="stroke:#000000;stroke-width:1;stroke-opacity:0.50;">
<line x1="1000.000" y1="1000.000" x2="893.260" y2="1184.878"/>
<line x1="1000.000" y1="1000.000" x2="1106.740" y2="1184.878"/>
<line x1="1000.000" y1="1000.000" x2="1000.000" y2="1369.757"/>
<line x1="1000.000" y1="1000.000" x2="1213.479" y2="1000.000"/>
<line x1="1000.000" y1="1000.000" x2="1320.219" y2="1184.878"/>
<line x1="1000.000" y1="1000.000" x2="1213.479" y2="1369.757"/>
<line x1="1000.000" y1="1000.000" x2="1106.740" y2="815.122"/>
<line x1="1000.000" y1="1000.000" x2="1000.000" y2="1000.000"/>
<line x1="1000.000" y1="1000.000" x2="1320.219" y2="815.122"/>
<line x1="1000.000" y1="1000.000" x2="1426.958" y2="1000.000"/>
<line x1="1000.000" y1="1000.000" x2="893.260" y2="815.122"/>
<line x1="1000.000" y1="1000.000" x2="786.521" y2="1000.000"/>
<line x1="1000.000" y1="1000.000" x2="1000.000" y2="630.243"/>
<line x1="1000.000" y1="1000.000" x2="1213.479" y2="630.243"/>
<line x1="1000.000" y1="1000.000" x2="679.781" y2="1184.878"/>
<line x1="1000.000" y1="1000.000" x2="679.781" y2="815.122"/>
<line x1="1000.000" y1="1000.000" x2="786.521" y2="1369.757"/>
<line x1="1000.000" y1="1000.000" x2="573.042" y2="1000.000"/>
<line x1="1000.000" y1="1000.000" x2="786.521" y2="630.243"/>
<line x1="893.260" y1="1184.878" x2="1106.740" y2="1184.878"/>
<line x1="893.260" y1="1184.878" x2="1000.000" y2="1369.757"/>
<line x1="893.260" y1="1184.878" x2="1213.479" y2="1000.000"/>
<line x1="893.260" y1="1184.878" x2="1213.479" y2="1369.757"/>
<line x1="893.260" y1="1184.878" x2="1106.740" y2="1554.635"/>
<line x1="893.260" y1="1184.878" x2="1106.740" y2="815.122"/>
<line x1="893.260" y1="1184.878" x2="893.260" y2="815.122"/>
<line x1="893.260" y1="1184.878" x2="786.521" y2="1000.000"/>
<line x1="893.260" y1="1184.878" x2="893.260" y2="1184.878"/>
<line x1="893.260" y1="1184.878" x2="786.521" y2="1369.757"/>
<line x1="893.260" y1="1184.878" x2="679.781" y2="1184.878"/>
<line x1="893.260" y1="1184.878" x2="573.042" y2="1000.000"/>
<line x1="893.260" y1="1184.878" x2="679.781" y2="1554.635"/>
<line x1="893.260" y1="1184.878" x2="893.260" y2="1554.635"/>
<line x1="893.260" y1="1184.878" x2="466.302" y2="1184.878"/>
<line x1="893.260" y1="1184.878" x2="573.042" y2="1369.757"/>
<line x1="1106.740" y1="1184.878" x2="1000.000" y2="1369.757"/>
<line x1="1106.740" y1="1184.878" x2="1213.479" y2="1000.000"/>
<line x1="1106.740" y1="1184.878" x2="1320.219" y2="1184.878"/>
<line x1="1106.740" y1="1184.878" x2="1213.479" y2="1369.757"/>
<line x1="1106.740" y1="1184.878" x2="1320.219" y2="1554.635"/>
<line x1="1106.740" y1="1184.878" x2="1106.740" y2="815.122"/>
<line x1="1106.740" y1="1184.878" x2="1106.740" y2="1184.878"/>
<line x1="1106.740" y1="1184.878" x2="1426.958" y2="1000.000"/>
<line x1="1106.740" y1="1184.878" x2="1533.698" y2="1184.878"/>
<line x1="1106.740" y1="1184.878" x2="1426.958" y2="1369.757"/>
<line x1="1106.740" y1="1184.878" x2="893.260" y2="815.122"/>
<line x1="1106.740" y1="1184.878" x2="786.521" y2="1000.000"/>
<line x1="1106.740" y1="1184.878" x2="786.521" y2="1369.757"/>
<line x1="1106.740" y1="1184.878" x2="893.260" y2="1554.635"/>
<line x1="1106.740" y1="1184.878" x2="1106.740" y2="1554.635"/>
<line x1="1000.000" y1="1369.757" x2="1000.000" y2="1369.757"/>
<line x1="1000.000" y1="1369.757" x2="1320.219" y2="1184.878"/>
<line x1="1000.000" y1="1369.757" x2="1213.479" y2="1369.757"/>
<line x1="1000.000" y1="1369.757" x2="1320.219" y2="1554.635"/>
<line x1="1000.000" y1="1369.757" x2="1106.740" y2="1554.635"/>
<line x1="1000.000" y1="1369.757" x2="1213.479" y2="1000.000"/>
<line x1="1000.000" y1="1369.757" x2="1426.958" y2="1369.757"/>
<line x1="1000.000" y1="1369.757" x2="786.521" y2="1000.000"/>
<line x1="1000.000" y1="1369.757" x2="786.521" y2="1369.757"/>
<line x1="1000.000" y1="1369.757" x2="679.781" y2="1184.878"/>
<line x1="1000.000" y1="1369.757" x2="893.260" y2="1554.635"/>
<line x1="1000.000" y1="1369.757" x2="679.781" y2="1554.635"/>
<line x1="1000.000" y1="1369.757" x2="1000.000" y2="1739.513"/>
<line x1="1000.000" y1="1369.757" x2="573.042" y2="1369.757"/>
<line x1="1213.479" y1="1000.000" x2="1320.219" y2="1184.878"/>
<line x1="1213.479" y1="1000.000" x2="1213.479" y2="1369.757"/>
<line x1="1213.479" y1="1000.000" x2="1426.958" y2="1369.757"/>
<line x1="1213.479" y1="1000.000" x2="1106.740" y2="815.122"/>
<line x1="1213.479" y1="1000.000" x2="1320.219" y2="815.122"/>
<line x1="1213.479" y1="1000.000" x2="1213.479" y2="1000.000"/>
<line x1="1213.479" y1="1000.000" x2="1426.958" y2="1000.000"/>
<line x1="1213.479" y1="1000.000" x2="1640.437" y2="1000.000"/>
<line x1="1213.479" y1="1000.000" x2="1533.698" y2="1184.878"/>
<line x1="1213.479" y1="1000.000" x2="893.260" y2="815.122"/>
<line x1="1213.479" y1="1000.000" x2="1213.479" y2="630.243"/>
<line x1="1213.479" y1="1000.000" x2="1426.958" y2="630.243"/>
<line x1="1213.479" y1="1000.000" x2="1533.698" y2="815.122"/>
<line x1="1213.479" y1="1000.000" x2="786.521" y2="1000.000"/>
<line x1="1106.740" y1="1184.878" x2="1320.219" y2="815.122"/>
<line x1="1106.740" y1="1184.878" x2="679.781" y2="1184.878"/>
<line x1="1320.219" y1="1184.878" x2="1213.479" y2="1369.757"/>
<line x1="1320.219" y1="1184.878" x2="1426.958" y2="1369.757"/>
<line x1="1320.219" y1="1184.878" x2="1320.219" y2="1554.635"/>
<line x1="1320.219" y1="1184.878" x2="1320.219" y2="1184.878"/>
<line x1="1320.219" y1="1184.878" x2="1320.219" y2="815.122"/>
<line x1="1320.219" y1="1184.878" x2="1426.958" y2="1000.000"/>
<line x1="1320.219" y1="1184.878" x2="1640.437" y2="1369.757"/>
<line x1="1320.219" y1="1184.878" x2="1640.437" y2="1000.000"/>
<line x1="1320.219" y1="1184.878" x2="1533.698" y2="1184.878"/>
<line x1="1320.219" y1="1184.878" x2="1106.740" y2="815.122"/>
<line x1="1320.219" y1="1184.878" x2="1533.698" y2="815.122"/>
<line x1="1320.219" y1="1184.878" x2="893.260" y2="1184.878"/>
<line x1="1320.219" y1="1184.878" x2="1106.740" y2="1554.635"/>
<line x1="1213.479" y1="1369.757" x2="1426.958" y2="1369.757"/>
<line x1="1213.479" y1="1369.757" x2="1320.219" y2="1554.635"/>
<line x1="1213.479" y1="1369.757" x2="1106.740" y2="1554.635"/>
<line x1="1213.479" y1="1369.757" x2="1213.479" y2="1369.757"/>
<line x1="1213.479" y1="1369.757" x2="1426.958" y2="1000.000"/>
<line x1="1213.479" y1="1369.757" x2="1640.437" y2="1369.757"/>
<line x1="1213.479" y1="1369.757" x2="1533.698" y2="1184.878"/>
<line x1="1213.479" y1="1369.757" x2="786.521" y2="1369.757"/>
<line x1="1213.479" y1="1369.757" x2="1000.000" y2="1739.513"/>
<line x1="1213.479" y1="1369.757" x2="893.260" y2="1554.635"/>
<line x1="1426.958" y1="1369.757" x2="1320.219" y2="1554.635"/>
<line x1="1426.958" y1="1369.757" x2="1106.740" y2="1554.635"/>
<line x1="1426.958" y1="1369.757" x2="1426.958" y2="1000.000"/>
<line x1="1426.958" y1="1369.757" x2="1640.437" y2="1369.757"/>
<line x1="1426.958" y1="1369.757" x2="1640.437" y2="1000.000"/>
<line x1="1426.958" y1="1369.757" x2="1426.958" y2="1369.757"/>
<line x1="1426.958" y1="1369.757" x2="1533.698" y2="1184.878"/>
<line x1="1426.958" y1="1369.757" x2="1533.698" y2="1554.635"/>
<line x1="1426.958" y1="1369.757" x2="1747.177" y2="1184.878"/>
<line x1="1426.958" y1="1369.757" x2="1213.479" y2="1739.513"/>
<line x1="1320.219" y1="1554.635" x2="1106.740" y2="1554.635"/>
<line x1="1320.219" y1="1554.635" x2="1640.437" y2="1369.757"/>
<line x1="1320.219" y1="1554.635" x2="1533.698" y2="1184.878"/>
<line x1="1320.219" y1="1554.635" x2="1320.219" y2="1554.635"/>
<line x1="1320.219" y1="1554.635" x2="1533.698" y2="1554.635"/>
<line x1="1320.219" y1="1554.635" x2="893.260" y2="1554.635"/>
<line x1="1320.219" y1="1554.635" x2="1000.000" y2="1739.513"/>
<line x1="1320.219" y1="1554.635" x2="1213.479" y2="1739.513"/>
<line x1="1320.219" y1="1554.635" x2="1426.958" y2="1739.513"/>
<line x1="1106.740" y1="1554.635" x2="1533.698" y2="1554.635"/>
<line x1="1106.740" y1="1554.635" x2="786.521" y2="1369.757"/>
<line x1="1106.740" y1="1554.635" x2="1106.740" y2="1554.635"/>
<line x1="1106.740" y1="1554.635" x2="679.781" y2="1554.635"/>
<line x1="1106.740" y1="1554.635" x2="1000.000" y2="1739.513"/>
<line x1="1106.740" y1="1554.635" x2="893.260" y2="1554.635"/>
<line x1="1106.740" y1="1554.635" x2="1213.479" y2="1739.513"/>
<line x1="1106.740" y1="1554.635" x2="786.521" y2="1739.513"/>
<line x1="1213.479" y1="1369.757" x2="1533.698" y2="1554.635"/>
<line x1="1213.479" y1="1369.757" x2="1213.479" y2="1739.513"/>
<line x1="1106.740" y1="815.122" x2="1320.219" y2="815.122"/>
<line x1="1106.740" y1="815.122" x2="1426.958" y2="1000.000"/>
<line x1="1106.740" y1="815.122" x2="1533.698" y2="815.122"/>
<line x1="1106.740" y1="815.122" x2="893.260" y2="815.122"/>
<line x1="1106.740" y1="815.122" x2="1000.000" y2="630.243"/>
<line x1="1106.740" y1="815.122" x2="1106.740" y2="815.122"/>
<line x1="1106.740" y1="815.122" x2="1213.479" y2="630.243"/>
<line x1="1106.740" y1="815.122" x2="1320.219" y2="445.365"/>
<line x1="1106.740" y1="815.122" x2="1426.958" y2="630.243"/>
<line x1="1106.740" y1="815.122" x2="786.521" y2="1000.000"/>
<line x1="1106.740" y1="815.122" x2="786.521" y2="630.243"/>
<line x1="1106.740" y1="815.122" x2="893.260" y2="445.365"/>
<line x1="1106.740" y1="815.122" x2="1106.740" y2="445.365"/>
<line x1="1213.479" y1="1000.000" x2="1000.000" y2="630.243"/>
<line x1="1320.219" y1="815.122" x2="1426.958" y2="1000.000"/>
<line x1="1320.219" y1="815.122" x2="1640.437" y2="1000.000"/>
<line x1="1320.219" y1="815.122" x2="1320.219" y2="815.122"/>
<line x1="1320.219" y1="815.122" x2="1533.698" y2="815.122"/>
<line x1="1320.219" y1="815.122" x2="1533.698" y2="1184.878"/>
<line x1="1320.219" y1="815.122" x2="1000.000" y2="630.243"/>
<line x1="1320.219" y1="815.122" x2="1213.479" y2="630.243"/>
<line x1="1320.219" y1="815.122" x2="1426.958" y2="630.243"/>
<line x1="1320.219" y1="815.122" x2="1640.437" y2="630.243"/>
<line x1="1320.219" y1="815.122" x2="1320.219" y2="445.365"/>
<line x1="1320.219" y1="815.122" x2="893.260" y2="815.122"/>
<line x1="1320.219" y1="815.122" x2="1106.740" y2="445.365"/>
<line x1="1426.958" y1="1000.000" x2="1640.437" y2="1000.000"/>
<line x1="1426.958" y1="1000.000" x2="1533.698" y2="1184.878"/>
<line x1="1426.958" y1="1000.000" x2="1533.698" y2="815.122"/>
<line x1="1426.958" y1="1000.000" x2="1426.958" y2="1000.000"/>
<line x1="1426.958" y1="1000.000" x2="1640.437" y2="1369.757"/>
<line x1="1426.958" y1="1000.000" x2="1213.479" y2="630.243"/>
<line x1="1426.958" y1="1000.000" x2="1640.437" y2="630.243"/>
<line x1="1426.958" y1="1000.000" x2="1426.958" y2="630.243"/>
<line x1="1640.437" y1="1000.000" x2="1533.698" y2="1184.878"/>
<line x1="1640.437" y1="1000.000" x2="1533.698" y2="815.122"/>
<line x1="1640.437" y1="1000.000" x2="1640.437" y2="1369.757"/>
<line x1="1640.437" y1="1000.000" x2="1640.437" y2="1000.000"/>
<line x1="1640.437" y1="1000.000" x2="1747.177" y2="1184.878"/>
<line x1="1640.437" y1="1000.000" x2="1426.958" y2="630.243"/>
<line x1="1640.437" y1="1000.000" x2="1640.437" y2="630.243"/>
<line x1="1640.437" y1="1000.000" x2="1747.177" y2="815.122"/>
<line x1="1640.437" y1="1000.000" x2="1853.916" y2="1000.000"/>
<line x1="1533.698" y1="1184.878" x2="1533.698" y2="815.122"/>
<line x1="1533.698" y1="1184.878" x2="1640.437" y2="1369.757"/>
<line x1="1533.698" y1="1184.878" x2="1533.698" y2="1184.878"/>
<line x1="1533.698" y1="1184.878" x2="1747.177" y2="1184.878"/>
<line x1="1533.698" y1="1184.878" x2="1747.177" y2="815.122"/>
<line x1="1533.698" y1="1184.878" x2="1533.698" y2="1554.635"/>
<line x1="1533.698" y1="815.122" x2="1747.177" y2="1184.878"/>
<line x1="1533.698" y1="815.122" x2="1213.479" y2="630.243"/>
<line x1="1533.698" y1="815.122" x2="1640.437" y2="630.243"/>
<line x1="1533.698" y1="815.122" x2="1320.219" y2="445.365"/>
<line x1="1533.698" y1="815.122" x2="1533.698" y2="815.122"/>
<line x1="1533.698" y1="815.122" x2="1426.958" y2="630.243"/>
<line x1="1533.698" y1="815.122" x2="1747.177" y2="815.122"/>
<line x1="1533.698" y1="815.122" x2="1533.698" y2="445.365"/>
<line x1="1426.958" y1="1000.000" x2="1747.177" y2="1184.878"/>
<line x1="1426.958" y1="1000.000" x2="1747.177" y2="815.122"/>
<line x1="1640.437" y1="1369.757" x2="1640.437" y2="1369.757"/>
<line x1="1640.437" y1="1369.757" x2="1533.698" y2="1554.635"/>
<line x1="1640.437" y1="1369.757" x2="1747.177" y2="1184.878"/>
<line x1="1640.437" y1="1369.757" x2="1853.916" y2="1000.000"/>
<line x1="1640.437" y1="1369.757" x2="1853.916" y2="1369.757"/>
<line x1="1640.437" y1="1369.757" x2="1426.958" y2="1739.513"/>
<line x1="1640.437" y1="1369.757" x2="1747.177" y2="1554.635"/>
<line x1="1533.698" y1="1184.878" x2="1853.916" y2="1000.000"/>
<line x1="1426.958" y1="1369.757" x2="1426.958" y2="1739.513"/>
<line x1="1533.698" y1="1554.635" x2="1747.177" y2="1184.878"/>
<line x1="1533.698" y1="1554.635" x2="1533.698" y2="1554.635"/>
<line x1="1533.698" y1="1554.635" x2="1853.916" y2="1369.757"/>
<line x1="1533.698" y1="1554.635" x2="1213.479" y2="1739.513"/>
<line x1="1533.698" y1="1554.635" x2="1426.958" y2="1739.513"/>
<line x1="1533.698" y1="1554.635" x2="1747.177" y2="1554.635"/>
<line x1="1533.698" y1="1554.635" x2="1640.437" y2="1739.513"/>
<line x1="1747.177" y1="1184.878" x2="1747.177" y2="815.122"/>
<line x1="1747.177" y1="1184.878" x2="1853.916" y2="1000.000"/>
<line x1="1747.177" y1="1184.878" x2="1747.177" y2="1184.878"/>
<line x1="1747.177" y1="1184.878" x2="1853.916" y2="1369.757"/>
<line x1="1747.177" y1="1184.878" x2="1747.177" y2="1554.635"/>
<line x1="1747.177" y1="1184.878" x2="1960.656" y2="1184.878"/>
<line x1="893.260" y1="815.122" x2="786.521" y2="1000.000"/>
<line x1="893.260" y1="815.122" x2="893.260" y2="815.122"/>
<line x1="893.260" y1="815.122" x2="1000.000" y2="630.243"/>
<line x1="893.260" y1="815.122" x2="1213.479" y2="630.243"/>
<line x1="893.260" y1="815.122" x2="786.521" y2="630.243"/>
<line x1="893.260" y1="815.122" x2="1106.740" y2="445.365"/>
<line x1="893.260" y1="815.122" x2="679.781" y2="815.122"/>
<line x1="893.260" y1="815.122" x2="573.042" y2="1000.000"/>
<line x1="893.260" y1="815.122" x2="466.302" y2="815.122"/>
<line x1="893.260" y1="815.122" x2="679.781" y2="445.365"/>
<line x1="893.260" y1="815.122" x2="573.042" y2="630.243"/>
<line x1="893.260" y1="815.122" x2="893.260" y2="445.365"/>
<line x1="786.521" y1="1000.000" x2="786.521" y2="1000.000"/>
<line x1="786.521" y1="1000.000" x2="1000.000" y2="630.243"/>
<line x1="786.521" y1="1000.000" x2="786.521" y2="630.243"/>
<line x1="786.521" y1="1000.000" x2="786.521" y2="1369.757"/>
<line x1="786.521" y1="1000.000" x2="679.781" y2="1184.878"/>
<line x1="786.521" y1="1000.000" x2="679.781" y2="815.122"/>
<line x1="786.521" y1="1000.000" x2="573.042" y2="1000.000"/>
<line x1="786.521" y1="1000.000" x2="466.302" y2="815.122"/>
<line x1="786.521" y1="1000.000" x2="466.302" y2="1184.878"/>
<line x1="786.521" y1="1000.000" x2="573.042" y2="630.243"/>
<line x1="786.521" y1="1000.000" x2="573.042" y2="1369.757"/>
<line x1="1106.740" y1="815.122" x2="679.781" y2="815.122"/>
<line x1="1000.000" y1="630.243" x2="1000.000" y2="630.243"/>
<line x1="1000.000" y1="630.243" x2="1213.479" y2="630.243"/>
<line x1="1000.000" y1="630.243" x2="1106.740" y2="445.365"/>
<line x1="1000.000" y1="630.243" x2="1320.219" y2="445.365"/>
<line x1="1000.000" y1="630.243" x2="786.521" y2="630.243"/>
<line x1="1000.000" y1="630.243" x2="1426.958" y2="630.243"/>
<line x1="1000.000" y1="630.243" x2="679.781" y2="815.122"/>
<line x1="1000.000" y1="630.243" x2="679.781" y2="445.365"/>
<line x1="1000.000" y1="630.243" x2="893.260" y2="445.365"/>
<line x1="1000.000" y1="630.243" x2="1000.000" y2="260.487"/>
<line x1="1000.000" y1="630.243" x2="573.042" y2="630.243"/>
<line x1="1213.479" y1="630.243" x2="1426.958" y2="630.243"/>
<line x1="1213.479" y1="630.243" x2="1106.740" y2="445.365"/>
<line x1="1213.479" y1="630.243" x2="1320.219" y2="445.365"/>
<line x1="1213.479" y1="630.243" x2="1213.479" y2="630.243"/>
<line x1="1213.479" y1="630.243" x2="1640.437" y2="630.243"/>
<line x1="1213.479" y1="630.243" x2="786.521" y2="630.243"/>
<line x1="1213.479" y1="630.243" x2="1000.000" y2="260.487"/>
<line x1="1213.479" y1="630.243" x2="893.260" y2="445.365"/>
<line x1="1426.958" y1="630.243" x2="1106.740" y2="445.365"/>
<line x1="1426.958" y1="630.243" x2="1320.219" y2="445.365"/>
<line x1="1426.958" y1="630.243" x2="1426.958" y2="630.243"/>
<line x1="1426.958" y1="630.243" x2="1640.437" y2="630.243"/>
<line x1="1426.958" y1="630.243" x2="1533.698" y2="445.365"/>
<line x1="1426.958" y1="630.243" x2="1747.177" y2="815.122"/>
<line x1="1426.958" y1="630.243" x2="1213.479" y2="260.487"/>
<line x1="1106.740" y1="445.365" x2="1320.219" y2="445.365"/>
<line x1="1106.740" y1="445.365" x2="786.521" y2="630.243"/>
<line x1="1106.740" y1="445.365" x2="1106.740" y2="445.365"/>
<line x1="1106.740" y1="445.365" x2="1533.698" y2="445.365"/>
<line x1="1106.740" y1="445.365" x2="679.781" y2="445.365"/>
<line x1="1106.740" y1="445.365" x2="1000.000" y2="260.487"/>
<line x1="1106.740" y1="445.365" x2="893.260" y2="445.365"/>
<line x1="1106.740" y1="445.365" x2="1213.479" y2="260.487"/>
<line x1="1106.740" y1="445.365" x2="786.521" y2="260.487"/>
<line x1="1320.219" y1="445.365" x2="1320.219" y2="445.365"/>
<line x1="1320.219" y1="445.365" x2="1640.437" y2="630.243"/>
<line x1="1320.219" y1="445.365" x2="1533.698" y2="445.365"/>
<line x1="1320.219" y1="445.365" x2="893.260" y2="445.365"/>
<line x1="1320.219" y1="445.365" x2="1000.000" y2="260.487"/>
<line x1="1320.219" y1="445.365" x2="1213.479" y2="260.487"/>
<line x1="1320.219" y1="445.365" x2="1426.958" y2="260.487"/>
<line x1="1213.479" y1="630.243" x2="1533.698" y2="445.365"/>
<line x1="1213.479" y1="630.243" x2="1213.479" y2="260.487"/>
<line x1="786.521" y1="630.243" x2="466.302" y2="815.122"/>
<line x1="786.521" y1="630.243" x2="679.781" y2="445.365"/>
<line x1="786.521" y1="630.243" x2="573.042" y2="630.243"/>
<line x1="786.521" y1="630.243" x2="786.521" y2="260.487"/>
<line x1="893.260" y1="815.122" x2="679.781" y2="1184.878"/>
<line x1="1320.219" y1="815.122" x2="1747.177" y2="815.122"/>
<line x1="1000.000" y1="630.243" x2="786.521" y2="260.487"/>
<line x1="786.521" y1="1369.757" x2="679.781" y2="1554.635"/>
<line x1="786.521" y1="1369.757" x2="466.302" y2="1184.878"/>
<line x1="786.521" y1="1369.757" x2="573.042" y2="1369.757"/>
<line x1="786.521" y1="1369.757" x2="786.521" y2="1739.513"/>
<line x1="893.260" y1="1184.878" x2="679.781" y2="815.122"/>
<line x1="1320.219" y1="1184.878" x2="1747.177" y2="1184.878"/>
<line x1="1000.000" y1="1369.757" x2="786.521" y2="1739.513"/>
<line x1="1640.437" y1="630.243" x2="1640.437" y2="630.243"/>
<line x1="1640.437" y1="630.243" x2="1747.177" y2="815.122"/>
<line x1="1640.437" y1="630.243" x2="1533.698" y2="445.365"/>
<line x1="1640.437" y1="630.243" x2="1853.916" y2="1000.000"/>
<line x1="1640.437" y1="630.243" x2="1853.916" y2="630.243"/>
<line x1="1640.437" y1="630.243" x2="1426.958" y2="260.487"/>
<line x1="1640.437" y1="630.243" x2="1747.177" y2="445.365"/>
<line x1="1533.698" y1="815.122" x2="1853.916" y2="1000.000"/>
<line x1="1426.958" y1="630.243" x2="1426.958" y2="260.487"/>
<line x1="1747.177" y1="815.122" x2="1533.698" y2="445.365"/>
<line x1="1747.177" y1="815.122" x2="1853.916" y2="1000.000"/>
<line x1="1747.177" y1="815.122" x2="1747.177" y2="815.122"/>
<line x1="1747.177" y1="815.122" x2="1853.916" y2="630.243"/>
<line x1="1747.177" y1="815.122" x2="1747.177" y2="445.365"/>
<line x1="1747.177" y1="815.122" x2="1960.656" y2="815.122"/>
<line x1="1533.698" y1="445.365" x2="1533.698" y2="445.365"/>
<line x1="1533.698" y1="445.365" x2="1853.916" y2="630.243"/>
<line x1="1533.698" y1="445.365" x2="1213.479" y2="260.487"/>
<line x1="1533.698" y1="445.365" x2="1426.958" y2="260.487"/>
<line x1="1533.698" y1="445.365" x2="1747.177" y2="445.365"/>
<line x1="1533.698" y1="445.365" x2="1640.437" y2="260.487"/>
<line x1="1853.916" y1="1000.000" x2="1853.916" y2="1000.000"/>
<line x1="1853.916" y1="1000.000" x2="1853.916" y2="1369.757"/>
<line x1="1853.916" y1="1000.000" x2="1853.916" y2="630.243"/>
<line x1="1853.916" y1="1000.000" x2="1960.656" y2="1184.878"/>
<line x1="1853.916" y1="1000.000" x2="1960.656" y2="815.122"/>
<line x1="1853.916" y1="1369.757" x2="1747.177" y2="1554.635"/>
<line x1="1853.916" y1="1369.757" x2="1853.916" y2="1369.757"/>
<line x1="1853.916" y1="1369.757" x2="1960.656" y2="1184.878"/>
<line x1="1853.916" y1="1369.757" x2="1640.437" y2="1739.513"/>
<line x1="1640.437" y1="1369.757" x2="1640.437" y2="1739.513"/>
<line x1="1853.916" y1="630.243" x2="1747.177" y2="445.365"/>
<line x1="1853.916" y1="630.243" x2="1853.916" y2="630.243"/>
<line x1="1853.916" y1="630.243" x2="1960.656" y2="815.122"/>
<line x1="1853.916" y1="630.243" x2="1640.437" y2="260.487"/>
<line x1="1640.437" y1="630.243" x2="1640.437" y2="260.487"/>
<line x1="786.521" y1="1000.000" x2="359.563" y2="1000.000"/>
<line x1="679.781" y1="1184.878" x2="786.521" y2="1369.757"/>
<line x1="679.781" y1="1184.878" x2="573.042" y2="1369.757"/>
<line x1="679.781" y1="1184.878" x2="679.781" y2="1184.878"/>
<line x1="679.781" y1="1184.878" x2="679.781" y2="1554.635"/>
<line x1="679.781" y1="1184.878" x2="573.042" y2="1000.000"/>
<line x1="679.781" y1="1184.878" x2="679.781" y2="815.122"/>
<line x1="679.781" y1="1184.878" x2="359.563" y2="1000.000"/>
<line x1="679.781" y1="1184.878" x2="359.563" y2="1369.757"/>
<line x1="679.781" y1="1184.878" x2="466.302" y2="1184.878"/>
<line x1="679.781" y1="1184.878" x2="466.302" y2="815.122"/>
<line x1="679.781" y1="1184.878" x2="893.260" y2="1554.635"/>
<line x1="786.521" y1="1369.757" x2="893.260" y2="1554.635"/>
<line x1="786.521" y1="1369.757" x2="786.521" y2="1369.757"/>
<line x1="786.521" y1="1369.757" x2="573.042" y2="1000.000"/>
<line x1="786.521" y1="1369.757" x2="359.563" y2="1369.757"/>
<line x1="786.521" y1="1369.757" x2="1000.000" y2="1739.513"/>
<line x1="573.042" y1="1369.757" x2="893.260" y2="1554.635"/>
<line x1="573.042" y1="1369.757" x2="679.781" y2="1554.635"/>
<line x1="573.042" y1="1369.757" x2="573.042" y2="1000.000"/>
<line x1="573.042" y1="1369.757" x2="573.042" y2="1369.757"/>
<line x1="573.042" y1="1369.757" x2="359.563" y2="1000.000"/>
<line x1="573.042" y1="1369.757" x2="359.563" y2="1369.757"/>
<line x1="573.042" y1="1369.757" x2="466.302" y2="1184.878"/>
<line x1="573.042" y1="1369.757" x2="466.302" y2="1554.635"/>
<line x1="573.042" y1="1369.757" x2="252.823" y2="1184.878"/>
<line x1="573.042" y1="1369.757" x2="786.521" y2="1739.513"/>
<line x1="893.260" y1="1554.635" x2="679.781" y2="1554.635"/>
<line x1="893.260" y1="1554.635" x2="893.260" y2="1554.635"/>
<line x1="893.260" y1="1554.635" x2="466.302" y2="1554.635"/>
<line x1="893.260" y1="1554.635" x2="1000.000" y2="1739.513"/>
<line x1="893.260" y1="1554.635" x2="786.521" y2="1739.513"/>
<line x1="893.260" y1="1554.635" x2="1213.479" y2="1739.513"/>
<line x1="679.781" y1="1554.635" x2="679.781" y2="1554.635"/>
<line x1="679.781" y1="1554.635" x2="359.563" y2="1369.757"/>
<line x1="679.781" y1="1554.635" x2="466.302" y2="1184.878"/>
<line x1="679.781" y1="1554.635" x2="466.302" y2="1554.635"/>
<line x1="679.781" y1="1554.635" x2="1000.000" y2="1739.513"/>
<line x1="679.781" y1="1554.635" x2="786.521" y2="1739.513"/>
<line x1="679.781" y1="1554.635" x2="573.042" y2="1739.513"/>
<line x1="786.521" y1="1369.757" x2="466.302" y2="1554.635"/>
<line x1="573.042" y1="1000.000" x2="359.563" y2="1000.000"/>
<line x1="573.042" y1="1000.000" x2="573.042" y2="630.243"/>
<line x1="573.042" y1="1000.000" x2="466.302" y2="815.122"/>
<line x1="573.042" y1="1000.000" x2="252.823" y2="1184.878"/>
<line x1="679.781" y1="1184.878" x2="252.823" y2="1184.878"/>
<line x1="1000.000" y1="1369.757" x2="1213.479" y2="1739.513"/>
<line x1="679.781" y1="815.122" x2="573.042" y2="1000.000"/>
<line x1="679.781" y1="815.122" x2="359.563" y2="1000.000"/>
<line x1="679.781" y1="815.122" x2="466.302" y2="815.122"/>
<line x1="679.781" y1="815.122" x2="679.781" y2="815.122"/>
<line x1="679.781" y1="815.122" x2="786.521" y2="630.243"/>
<line x1="679.781" y1="815.122" x2="359.563" y2="630.243"/>
<line x1="679.781" y1="815.122" x2="573.042" y2="630.243"/>
<line x1="679.781" y1="815.122" x2="679.781" y2="445.365"/>
<line x1="679.781" y1="815.122" x2="466.302" y2="1184.878"/>
<line x1="679.781" y1="815.122" x2="893.260" y2="445.365"/>
<line x1="573.042" y1="1000.000" x2="466.302" y2="1184.878"/>
<line x1="573.042" y1="1000.000" x2="573.042" y2="1000.000"/>
<line x1="573.042" y1="1000.000" x2="786.521" y2="630.243"/>
<line x1="573.042" y1="1000.000" x2="359.563" y2="630.243"/>
<line x1="573.042" y1="1000.000" x2="359.563" y2="1369.757"/>
<line x1="359.563" y1="1000.000" x2="466.302" y2="815.122"/>
<line x1="359.563" y1="1000.000" x2="466.302" y2="1184.878"/>
<line x1="359.563" y1="1000.000" x2="359.563" y2="630.243"/>
<line x1="359.563" y1="1000.000" x2="573.042" y2="630.243"/>
<line x1="359.563" y1="1000.000" x2="359.563" y2="1000.000"/>
<line x1="359.563" y1="1000.000" x2="252.823" y2="815.122"/>
<line x1="359.563" y1="1000.000" x2="359.563" y2="1369.757"/>
<line x1="359.563" y1="1000.000" x2="252.823" y2="1184.878"/>
<line x1="359.563" y1="1000.000" x2="146.084" y2="1000.000"/>
<line x1="466.302" y1="815.122" x2="466.302" y2="1184.878"/>
<line x1="466.302" y1="815.122" x2="359.563" y2="630.243"/>
<line x1="466.302" y1="815.122" x2="679.781" y2="445.365"/>
<line x1="466.302" y1="815.122" x2="466.302" y2="815.122"/>
<line x1="466.302" y1="815.122" x2="573.042" y2="630.243"/>
<line x1="466.302" y1="815.122" x2="252.823" y2="815.122"/>
<line x1="466.302" y1="815.122" x2="252.823" y2="1184.878"/>
<line x1="466.302" y1="815.122" x2="466.302" y2="445.365"/>
<line x1="466.302" y1="1184.878" x2="252.823" y2="815.122"/>
<line x1="466.302" y1="1184.878" x2="359.563" y2="1369.757"/>
<line x1="466.302" y1="1184.878" x2="466.302" y2="1184.878"/>
<line x1="466.302" y1="1184.878" x2="252.823" y2="1184.878"/>
<line x1="466.302" y1="1184.878" x2="466.302" y2="1554.635"/>
<line x1="573.042" y1="1000.000" x2="252.823" y2="815.122"/>
<line x1="786.521" y1="630.243" x2="893.260" y2="445.365"/>
<line x1="786.521" y1="630.243" x2="786.521" y2="630.243"/>
<line x1="786.521" y1="630.243" x2="359.563" y2="630.243"/>
<line x1="786.521" y1="630.243" x2="1000.000" y2="260.487"/>
<line x1="573.042" y1="630.243" x2="679.781" y2="445.365"/>
<line x1="573.042" y1="630.243" x2="893.260" y2="445.365"/>
<line x1="573.042" y1="630.243" x2="359.563" y2="630.243"/>
<line x1="573.042" y1="630.243" x2="573.042" y2="630.243"/>
<line x1="573.042" y1="630.243" x2="466.302" y2="445.365"/>
<line x1="573.042" y1="630.243" x2="252.823" y2="815.122"/>
<line x1="573.042" y1="630.243" x2="786.521" y2="260.487"/>
<line x1="679.781" y1="445.365" x2="893.260" y2="445.365"/>
<line x1="679.781" y1="445.365" x2="359.563" y2="630.243"/>
<line x1="679.781" y1="445.365" x2="679.781" y2="445.365"/>
<line x1="679.781" y1="445.365" x2="466.302" y2="445.365"/>
<line x1="679.781" y1="445.365" x2="1000.000" y2="260.487"/>
<line x1="679.781" y1="445.365" x2="786.521" y2="260.487"/>
<line x1="679.781" y1="445.365" x2="573.042" y2="260.487"/>
<line x1="893.260" y1="445.365" x2="466.302" y2="445.365"/>
<line x1="893.260" y1="445.365" x2="893.260" y2="445.365"/>
<line x1="893.260" y1="445.365" x2="1000.000" y2="260.487"/>
<line x1="893.260" y1="445.365" x2="786.521" y2="260.487"/>
<line x1="893.260" y1="445.365" x2="1213.479" y2="260.487"/>
<line x1="786.521" y1="630.243" x2="466.302" y2="445.365"/>
<line x1="359.563" y1="630.243" x2="359.563" y2="630.243"/>
<line x1="359.563" y1="630.243" x2="252.823" y2="815.122"/>
<line x1="359.563" y1="630.243" x2="466.302" y2="445.365"/>
<line x1="359.563" y1="630.243" x2="146.084" y2="1000.000"/>
<line x1="359.563" y1="630.243" x2="146.084" y2="630.243"/>
<line x1="359.563" y1="630.243" x2="573.042" y2="260.487"/>
<line x1="359.563" y1="630.243" x2="252.823" y2="445.365"/>
<line x1="466.302" y1="815.122" x2="146.084" y2="1000.000"/>
<line x1="573.042" y1="630.243" x2="573.042" y2="260.487"/>
<line x1="252.823" y1="815.122" x2="466.302" y2="445.365"/>
<line x1="252.823" y1="815.122" x2="252.823" y2="1184.878"/>
<line x1="252.823" y1="815.122" x2="146.084" y2="1000.000"/>
<line x1="252.823" y1="815.122" x2="252.823" y2="815.122"/>
<line x1="252.823" y1="815.122" x2="146.084" y2="630.243"/>
<line x1="252.823" y1="815.122" x2="252.823" y2="445.365"/>
<line x1="252.823" y1="815.122" x2="39.344" y2="815.122"/>
<line x1="466.302" y1="445.365" x2="466.302" y2="445.365"/>
<line x1="466.302" y1="445.365" x2="146.084" y2="630.243"/>
<line x1="466.302" y1="445.365" x2="786.521" y2="260.487"/>
<line x1="466.302" y1="445.365" x2="573.042" y2="260.487"/>
<line x1="466.302" y1="445.365" x2="252.823" y2="445.365"/>
<line x1="466.302" y1="445.365" x2="359.563" y2="260.487"/>
<line x1="359.563" y1="1369.757" x2="359.563" y2="1369.757"/>
<line x1="359.563" y1="1369.757" x2="466.302" y2="1554.635"/>
<line x1="359.563" y1="1369.757" x2="252.823" y2="1184.878"/>
<line x1="359.563" y1="1369.757" x2="146.084" y2="1000.000"/>
<line x1="359.563" y1="1369.757" x2="146.084" y2="1369.757"/>
<line x1="359.563" y1="1369.757" x2="573.042" y2="1739.513"/>
<line x1="359.563" y1="1369.757" x2="252.823" y2="1554.635"/>
<line x1="466.302" y1="1184.878" x2="146.084" y2="1000.000"/>
<line x1="573.042" y1="1369.757" x2="573.042" y2="1739.513"/>
<line x1="466.302" y1="1554.635" x2="252.823" y2="1184.878"/>
<line x1="466.302" y1="1554.635" x2="466.302" y2="1554.635"/>
<line x1="466.302" y1="1554.635" x2="146.084" y2="1369.757"/>
<line x1="466.302" y1="1554.635" x2="786.521" y2="1739.513"/>
<line x1="466.302" y1="1554.635" x2="573.042" y2="1739.513"/>
<line x1="466.302" y1="1554.635" x2="252.823" y2="1554.635"/>
<line x1="466.302" y1="1554.635" x2="359.563" y2="1739.513"/>
<line x1="252.823" y1="1184.878" x2="146.084" y2="1000.000"/>
<line x1="252.823" y1="1184.878" x2="252.823" y2="1184.878"/>
<line x1="252.823" y1="1184.878" x2="146.084" y2="1369.757"/>
<line x1="252.823" y1="1184.878" x2="252.823" y2="1554.635"/>
<line x1="252.823" y1="1184.878" x2="39.344" y2="1184.878"/>
<line x1="679.781" y1="815.122" x2="252.823" y2="815.122"/>
<line x1="1000.000" y1="630.243" x2="1213.479" y2="260.487"/>
<line x1="146.084" y1="1000.000" x2="146.084" y2="1000.000"/>
<line x1="146.084" y1="1000.000" x2="146.084" y2="630.243"/>
<line x1="146.084" y1="1000.000" x2="146.084" y2="1369.757"/>
<line x1="146.084" y1="1000.000" x2="39.344" y2="815.122"/>
<line x1="146.084" y1="1000.000" x2="39.344" y2="1184.878"/>
<line x1="146.084" y1="630.243" x2="252.823" y2="445.365"/>
<line x1="146.084" y1="630.243" x2="146.084" y2="630.243"/>
<line x1="146.084" y1="630.243" x2="39.344" y2="815.122"/>
<line x1="146.084" y1="630.243" x2="359.563" y2="260.487"/>
<line x1="359.563" y1="630.243" x2="359.563" y2="260.487"/>
<line x1="146.084" y1="1369.757" x2="252.823" y2="1554.635"/>
<line x1="146.084" y1="1369.757" x2="146.084" y2="1369.757"/>
<line x1="146.084" y1="1369.757" x2="39.344" y2="1184.878"/>
<line x1="146.084" y1="1369.757" x2="359.563" y2="1739.513"/>
<line x1="359.563" y1="1369.757" x2="359.563" y2="1739.513"/>
<line x1="1000.000" y1="1739.513" x2="1000.000" y2="1739.513"/>
<line x1="1000.000" y1="1739.513" x2="1213.479" y2="1739.513"/>
<line x1="1000.000" y1="1739.513" x2="786.521" y2="1739.513"/>
<line x1="1000.000" y1="1739.513" x2="1426.958" y2="1739.513"/>
<line x1="1000.000" y1="1739.513" x2="1106.740" y2="1924.391"/>
<line x1="1000.000" y1="1739.513" x2="573.042" y2="1739.513"/>
<line x1="1000.000" y1="1739.513" x2="893.260" y2="1924.391"/>
<line x1="1106.740" y1="1554.635" x2="1426.958" y2="1739.513"/>
<line x1="893.260" y1="1554.635" x2="573.042" y2="1739.513"/>
<line x1="1213.479" y1="1739.513" x2="786.521" y2="1739.513"/>
<line x1="1213.479" y1="1739.513" x2="1426.958" y2="1739.513"/>
<line x1="1213.479" y1="1739.513" x2="1213.479" y2="1739.513"/>
<line x1="1213.479" y1="1739.513" x2="1106.740" y2="1924.391"/>
<line x1="1213.479" y1="1739.513" x2="893.260" y2="1924.391"/>
<line x1="1213.479" y1="1739.513" x2="1320.219" y2="1924.391"/>
<line x1="786.521" y1="1739.513" x2="786.521" y2="1739.513"/>
<line x1="786.521" y1="1739.513" x2="1106.740" y2="1924.391"/>
<line x1="786.521" y1="1739.513" x2="573.042" y2="1739.513"/>
<line x1="786.521" y1="1739.513" x2="893.260" y2="1924.391"/>
<line x1="786.521" y1="1739.513" x2="679.781" y2="1924.391"/>
<line x1="1320.219" y1="1184.878" x2="1533.698" y2="1554.635"/>
<line x1="1320.219" y1="815.122" x2="1533.698" y2="445.365"/>
<line x1="1426.958" y1="1739.513" x2="1426.958" y2="1739.513"/>
<line x1="1426.958" y1="1739.513" x2="1747.177" y2="1554.635"/>
<line x1="1426.958" y1="1739.513" x2="1106.740" y2="1924.391"/>
<line x1="1426.958" y1="1739.513" x2="1640.437" y2="1739.513"/>
<line x1="1426.958" y1="1739.513" x2="1320.219" y2="1924.391"/>
<line x1="1747.177" y1="1554.635" x2="1747.177" y2="1554.635"/>
<line x1="1747.177" y1="1554.635" x2="1960.656" y2="1184.878"/>
<line x1="1747.177" y1="1554.635" x2="1640.437" y2="1739.513"/>
<line x1="1640.437" y1="1369.757" x2="1960.656" y2="1184.878"/>
<line x1="1106.740" y1="1924.391" x2="893.260" y2="1924.391"/>
<line x1="1106.740" y1="1924.391" x2="1106.740" y2="1924.391"/>
<line x1="1106.740" y1="1924.391" x2="1320.219" y2="1924.391"/>
<line x1="1106.740" y1="1924.391" x2="679.781" y2="1924.391"/>
<line x1="1000.000" y1="1739.513" x2="679.781" y2="1924.391"/>
<line x1="679.781" y1="815.122" x2="466.302" y2="445.365"/>
<line x1="679.781" y1="1184.878" x2="466.302" y2="1554.635"/>
<line x1="1000.000" y1="260.487" x2="1000.000" y2="260.487"/>
<line x1="1000.000" y1="260.487" x2="1213.479" y2="260.487"/>
<line x1="1000.000" y1="260.487" x2="786.521" y2="260.487"/>
<line x1="1000.000" y1="260.487" x2="573.042" y2="260.487"/>
<line x1="1000.000" y1="260.487" x2="893.260" y2="75.609"/>
<line x1="1000.000" y1="260.487" x2="1426.958" y2="260.487"/>
<line x1="1000.000" y1="260.487" x2="1106.740" y2="75.609"/>
<line x1="893.260" y1="445.365" x2="573.042" y2="260.487"/>
<line x1="1106.740" y1="445.365" x2="1426.958" y2="260.487"/>
<line x1="1213.479" y1="260.487" x2="786.521" y2="260.487"/>
<line x1="1213.479" y1="260.487" x2="1213.479" y2="260.487"/>
<line x1="1213.479" y1="260.487" x2="893.260" y2="75.609"/>
<line x1="1213.479" y1="260.487" x2="1426.958" y2="260.487"/>
<line x1="1213.479" y1="260.487" x2="1106.740" y2="75.609"/>
<line x1="1213.479" y1="260.487" x2="1320.219" y2="75.609"/>
<line x1="786.521" y1="260.487" x2="573.042" y2="260.487"/>
<line x1="786.521" y1="260.487" x2="786.521" y2="260.487"/>
<line x1="786.521" y1="260.487" x2="893.260" y2="75.609"/>
<line x1="786.521" y1="260.487" x2="1106.740" y2="75.609"/>
<line x1="786.521" y1="260.487" x2="679.781" y2="75.609"/>
<line x1="573.042" y1="260.487" x2="573.042" y2="260.487"/>
<line x1="573.042" y1="260.487" x2="252.823" y2="445.365"/>
<line x1="573.042" y1="260.487" x2="893.260" y2="75.609"/>
<line x1="573.042" y1="260.487" x2="359.563" y2="260.487"/>
<line x1="573.042" y1="260.487" x2="679.781" y2="75.609"/>
<line x1="252.823" y1="445.365" x2="252.823" y2="445.365"/>
<line x1="252.823" y1="445.365" x2="39.344" y2="815.122"/>
<line x1="252.823" y1="445.365" x2="359.563" y2="260.487"/>
<line x1="359.563" y1="630.243" x2="39.344" y2="815.122"/>
<line x1="893.260" y1="75.609" x2="1106.740" y2="75.609"/>
<line x1="893.260" y1="75.609" x2="893.260" y2="75.609"/>
<line x1="893.260" y1="75.609" x2="679.781" y2="75.609"/>
<line x1="893.260" y1="75.609" x2="1320.219" y2="75.609"/>
<line x1="1000.000" y1="260.487" x2="1320.219" y2="75.609"/>
<line x1="573.042" y1="1739.513" x2="573.042" y2="1739.513"/>
<line x1="573.042" y1="1739.513" x2="252.823" y2="1554.635"/>
<line x1="573.042" y1="1739.513" x2="893.260" y2="1924.391"/>
<line x1="573.042" y1="1739.513" x2="359.563" y2="1739.513"/>
<line x1="573.042" y1="1739.513" x2="679.781" y2="1924.391"/>
<line x1="252.823" y1="1554.635" x2="252.823" y2="1554.635"/>
<line x1="252.823" y1="1554.635" x2="39.344" y2="1184.878"/>
<line x1="252.823" y1="1554.635" x2="359.563" y2="1739.513"/>
<line x1="359.563" y1="1369.757" x2="39.344" y2="1184.878"/>
<line x1="893.260" y1="1924.391" x2="893.260" y2="1924.391"/>
<line x1="893.260" y1="1924.391" x2="679.781" y2="1924.391"/>
<line x1="893.260" y1="1924.391" x2="1320.219" y2="1924.391"/>
<line x1="1000.000" y1="1739.513" x2="1320.219" y2="1924.391"/>
<line x1="1426.958" y1="260.487" x2="1426.958" y2="260.487"/>
<line x1="1426.958" y1="260.487" x2="1747.177" y2="445.365"/>
<line x1="1426.958" y1="260.487" x2="1106.740" y2="75.609"/>
<line x1="1426.958" y1="260.487" x2="1640.437" y2="260.487"/>
<line x1="1426.958" y1="260.487" x2="1320.219" y2="75.609"/>
<line x1="1747.177" y1="445.365" x2="1747.177" y2="445.365"/>
<line x1="1747.177" y1="445.365" x2="1960.656" y2="815.122"/>
<line x1="1747.177" y1="445.365" x2="1640.437" y2="260.487"/>
<line x1="1640.437" y1="630.243" x2="1960.656" y2="815.122"/>
<line x1="1106.740" y1="75.609" x2="1106.740" y2="75.609"/>
<line x1="1106.740" y1="75.609" x2="1320.219" y2="75.609"/>
<line x1="1106.740" y1="75.609" x2="679.781" y2="75.609"/>
<line x1="1000.000" y1="260.487" x2="679.781" y2="75.609"/>
<line x1="1960.656" y1="1184.878" x2="1960.656" y2="815.122"/>
<line x1="1960.656" y1="1184.878" x2="1960.656" y2="1184.878"/>
<line x1="1960.656" y1="815.122" x2="1960.656" y2="815.122"/>
<line x1="1640.437" y1="1739.513" x2="1640.437" y2="1739.513"/>
<line x1="1640.437" y1="1739.513" x2="1320.219" y2="1924.391"/>
<line x1="1320.219" y1="1924.391" x2="1320.219" y2="1924.391"/>
<line x1="39.344" y1="815.122" x2="39.344" y2="1184.878"/>
<line x1="39.344" y1="815.122" x2="39.344" y2="815.122"/>
<line x1="39.344" y1="1184.878" x2="39.344" y2="1184.878"/>
<line x1="359.563" y1="260.487" x2="359.563" y2="260.487"/>
<line x1="359.563" y1="260.487" x2="679.781" y2="75.609"/>
<line x1="679.781" y1="75.609" x2="679.781" y2="75.609"/>
<line x1="1640.437" y1="260.487" x2="1640.437" y2="260.487"/>
<line x1="1640.437" y1="260.487" x2="1320.219" y2="75.609"/>
<line x1="1320.219" y1="75.609" x2="1320.219" y2="75.609"/>
<line x1="359.563" y1="1739.513" x2="359.563" y2="1739.513"/>
<line x1="359.563" y1="1739.513" x2="679.781" y2="1924.391"/>
<line x1="679.781" y1="1924.391" x2="679.781" y2="1924.391"/>
</g>
<g style="stroke:#000000;stroke-width:0.5;fill:#ff0000">
<circle cx="1960.656" cy="1184.878" r="29.6"/>
<circle cx="1960.656" cy="815.122" r="29.6"/>
<circle cx="1640.437" cy="1739.513" r="29.6"/>
<circle cx="1320.219" cy="1924.391" r="29.6"/>
<circle cx="39.344" cy="815.122" r="29.6"/>
<circle cx="39.344" cy="1184.878" r="29.6"/>
<circle cx="359.563" cy="260.487" r="29.6"/>
<circle cx="679.781" cy="75.609" r="29.6"/>
<circle cx="1640.437" cy="260.487" r="29.6"/>
<circle cx="1320.219" cy="75.609" r="29.6"/>
<circle cx="359.563" cy="1739.513" r="29.6"/>
<circle cx="679.781" cy="1924.391" r="29.6"/>
</g>
<g style="stroke:#000000;stroke-width:0.5;fill:#ff7f00">
<circle cx="1853.916" cy="1369.757" r="29.6"/>
<circle cx="1853.916" cy="630.243" r="29.6"/>
<circle cx="146.084" cy="630.243" r="29.6"/>
<circle cx="146.084" cy="1369.757" r="29.6"/>
<circle cx="1747.177" cy="1554.635" r="29.6"/>
<circle cx="1106.740" cy="1924.391" r="29.6"/>
<circle cx="252.823" cy="445.365" r="29.6"/>
<circle cx="893.260" cy="75.609" r="29.6"/>
<circle cx="252.823" cy="1554.635" r="29.6"/>
<circle cx="893.260" cy="1924.391" r="29.6"/>
<circle cx="1747.177" cy="445.365" r="29.6"/>
<circle cx="1106.740" cy="75.609" r="29.6"/>
</g>
<g style="stroke:#000000;stroke-width:0.5;fill:#ffff00">
<circle cx="1853.916" cy="1000.000" r="29.6"/>
<circle cx="146.084" cy="1000.000" r="29.6"/>
<circle cx="1426.958" cy="1739.513" r="29.6"/>
<circle cx="573.042" cy="260.487" r="29.6"/>
<circle cx="573.042" cy="1739.513" r="29.6"/>
<circle cx="1426.958" cy="260.487" r="29.6"/>
</g>
<g style="stroke:#000000;stroke-width:0.5;fill:#00ff00">
<circle cx="1533.698" cy="1554.635" r="29.6"/>
<circle cx="1747.177" cy="1184.878" r="29.6"/>
<circle cx="1747.177" cy="815.122" r="29.6"/>
<circle cx="1533.698" cy="445.365" r="29.6"/>
<circle cx="252.823" cy="815.122" r="29.6"/>
<circle cx="466.302" cy="445.365" r="29.6"/>
<circle cx="466.302" cy="1554.635" r="29.6"/>
<circle cx="252.823" cy="1184.878" r="29.6"/>
<circle cx="1213.479" cy="1739.513" r="29.6"/>
<circle cx="786.521" cy="1739.513" r="29.6"/>
<circle cx="1213.479" cy="260.487" r="29.6"/>
<circle cx="786.521" cy="260.487" r="29.6"/>
</g>
<g style="stroke:#000000;stroke-width:0.5;fill:#00ffff">
<circle cx="1640.437" cy="1369.757" r="29.6"/>
<circle cx="1640.437" cy="630.243" r="29.6"/>
<circle cx="359.563" cy="630.243" r="29.6"/>
<circle cx="359.563" cy="1369.757" r="29.6"/>
<circle cx="1000.000" cy="1739.513" r="29.6"/>
<circle cx="1000.000" cy="260.487" r="29.6"/>
</g>
<g style="stroke:#000000;stroke-width:0.5;fill:#0000ff">
<circle cx="1320.219" cy="1554.635" r="29.6"/>
<circle cx="1640.437" cy="1000.000" r="29.6"/>
<circle cx="1320.219" cy="445.365" r="29.6"/>
<circle cx="679.781" cy="1554.635" r="29.6"/>
<circle cx="359.563" cy="1000.000" r="29.6"/>
<circle cx="679.781" cy="445.365" r="29.6"/>
</g>
<g style="stroke:#000000;stroke-width:0.5;fill:#7f00ff">
<circle cx="1426.958" cy="1369.757" r="29.6"/>
<circle cx="1106.740" cy="1554.635" r="29.6"/>
<circle cx="1533.698" cy="1184.878" r="29.6"/>
<circle cx="1533.698" cy="815.122" r="29.6"/>
<circle cx="1426.958" cy="630.243" r="29.6"/>
<circle cx="1106.740" cy="445.365" r="29.6"/>
<circle cx="573.042" cy="1369.757" r="29.6"/>
<circle cx="893.260" cy="1554.635" r="29.6"/>
<circle cx="466.302" cy="815.122" r="29.6"/>
<circle cx="466.302" cy="1184.878" r="29.6"/>
<circle cx="573.042" cy="630.243" r="29.6"/>
<circle cx="893.260" cy="445.365" r="29.6"/>
</g>
<g style="stroke:#000000;stroke-width:0.5;fill:#ff00ff">
<circle cx="1000.000" cy="1369.757" r="29.6"/>
<circle cx="1320.219" cy="1184.878" r="29.6"/>
<circle cx="1320.219" cy="815.122" r="29.6"/>
<circle cx="1000.000" cy="630.243" r="29.6"/>
<circle cx="679.781" cy="1184.878" r="29.6"/>
<circle cx="679.781" cy="815.122" r="29.6"/>
</g>
<g style="stroke:#000000;stroke-width:0.5;fill:#ff007f">
<circle cx="1213.479" cy="1369.757" r="29.6"/>
<circle cx="1426.958" cy="1000.000" r="29.6"/>
<circle cx="1213.479" cy="630.243" r="29.6"/>
<circle cx="786.521" cy="630.243" r="29.6"/>
<circle cx="786.521" cy="1369.757" r="29.6"/>
<circle cx="573.042" cy="1000.000" r="29.6"/>
</g>
<g style="stroke:#000000;stroke-width:0.5;fill:#ff0000">
<circle cx="893.260" cy="1184.878" r="29.6"/>
<circle cx="1106.740" cy="1184.878" r="29.6"/>
<circle cx="1213.479" cy="1000.000" r="29.6"/>
<circle cx="1106.740" cy="815.122" r="29.6"/>
<circle cx="893.260" cy="815.122" r="29.6"/>
<circle cx="786.521" cy="1000.000" r="29.6"/>
</g>
<g style="stroke:#000000;stroke-width:0.5;fill:#ff7f00">
<circle cx="1000.000" cy="1000.000" r="29.6"/>
</g>
</svg>
