<?xml version="1.0" encoding="UTF-8" standalone="no"?>
<svg
xmlns="http://www.w3.org/2000/svg"
version="1.0"
width="2000" height="2000"
id="2_41_t0_A5.svg">
<g style="stroke:#000000;stroke-width:6.0;stroke-opacity:0.50;">
<line x1="1000.000" y1="1000.000" x2="1000.000" y2="1000.000"/>
<line x1="1000.000" y1="1000.000" x2="862.128" y2="1238.801"/>
<line x1="1000.000" y1="1000.000" x2="1137.872" y2="1238.801"/>
<line x1="1000.000" y1="1000.000" x2="1000.000" y2="1477.603"/>
<line x1="1000.000" y1="1000.000" x2="1275.744" y2="1000.000"/>
<line x1="1000.000" y1="1000.000" x2="1413.616" y2="1238.801"/>
<line x1="1000.000" y1="1000.000" x2="1275.744" y2="1477.603"/>
<line x1="1000.000" y1="1000.000" x2="1137.872" y2="761.199"/>
<line x1="1000.000" y1="1000.000" x2="1413.616" y2="761.199"/>
<line x1="1000.000" y1="1000.000" x2="1551.488" y2="1000.000"/>
<line x1="1000.000" y1="1000.000" x2="862.128" y2="761.199"/>
<line x1="1000.000" y1="1000.000" x2="724.256" y2="1000.000"/>
<line x1="1000.000" y1="1000.000" x2="1000.000" y2="522.397"/>
<line x1="1000.000" y1="1000.000" x2="1275.744" y2="522.397"/>
<line x1="1000.000" y1="1000.000" x2="586.384" y2="1238.801"/>
<line x1="1000.000" y1="1000.000" x2="724.256" y2="1477.603"/>
<line x1="1000.000" y1="1000.000" x2="586.384" y2="761.199"/>
<line x1="1000.000" y1="1000.000" x2="448.512" y2="1000.000"/>
<line x1="1000.000" y1="1000.000" x2="724.256" y2="522.397"/>
<line x1="1551.488" y1="1000.000" x2="1275.744" y2="1000.000"/>
<line x1="1551.488" y1="1000.000" x2="1137.872" y2="1238.801"/>
<line x1="1551.488" y1="1000.000" x2="1413.616" y2="1238.801"/>
<line x1="1551.488" y1="1000.000" x2="1275.744" y2="1477.603"/>
<line x1="1551.488" y1="1000.000" x2="1551.488" y2="1000.000"/>
<line x1="1551.488" y1="1000.000" x2="1689.360" y2="1238.801"/>
<line x1="1551.488" y1="1000.000" x2="1551.488" y2="1477.603"/>
<line x1="1551.488" y1="1000.000" x2="1413.616" y2="761.199"/>
<line x1="1551.488" y1="1000.000" x2="1689.360" y2="761.199"/>
<line x1="1551.488" y1="1000.000" x2="1827.232" y2="1000.000"/>
<line x1="1551.488" y1="1000.000" x2="1137.872" y2="761.199"/>
<line x1="1551.488" y1="1000.000" x2="1275.744" y2="522.397"/>
<line x1="1551.488" y1="1000.000" x2="1551.488" y2="522.397"/>
<line x1="1275.744" y1="1477.603" x2="1137.872" y2="1238.801"/>
<line x1="1275.744" y1="1477.603" x2="1689.360" y2="1238.801"/>
<line x1="1275.744" y1="1477.603" x2="1275.744" y2="1000.000"/>
<line x1="1275.744" y1="1477.603" x2="1551.488" y2="1477.603"/>
<line x1="1275.744" y1="1477.603" x2="1275.744" y2="1477.603"/>
<line x1="1275.744" y1="1477.603" x2="1413.616" y2="1238.801"/>
<line x1="1275.744" y1="1477.603" x2="862.128" y2="1238.801"/>
<line x1="1275.744" y1="1477.603" x2="1000.000" y2="1477.603"/>
<line x1="1275.744" y1="1477.603" x2="724.256" y2="1477.603"/>
<line x1="1275.744" y1="1477.603" x2="1137.872" y2="1716.404"/>
<line x1="1275.744" y1="1477.603" x2="862.128" y2="1716.404"/>
<line x1="1275.744" y1="1477.603" x2="1413.616" y2="1716.404"/>
<line x1="1275.744" y1="522.397" x2="1413.616" y2="761.199"/>
<line x1="1275.744" y1="522.397" x2="862.128" y2="761.199"/>
<line x1="1275.744" y1="522.397" x2="1275.744" y2="1000.000"/>
<line x1="1275.744" y1="522.397" x2="1000.000" y2="522.397"/>
<line x1="1275.744" y1="522.397" x2="1275.744" y2="522.397"/>
<line x1="1275.744" y1="522.397" x2="1137.872" y2="761.199"/>
<line x1="1275.744" y1="522.397" x2="1689.360" y2="761.199"/>
<line x1="1275.744" y1="522.397" x2="1551.488" y2="522.397"/>
<line x1="1275.744" y1="522.397" x2="724.256" y2="522.397"/>
<line x1="1275.744" y1="522.397" x2="862.128" y2="283.596"/>
<line x1="1275.744" y1="522.397" x2="1137.872" y2="283.596"/>
<line x1="1275.744" y1="522.397" x2="1413.616" y2="283.596"/>
<line x1="1137.872" y1="1238.801" x2="1275.744" y2="1000.000"/>
<line x1="1137.872" y1="1238.801" x2="1551.488" y2="1477.603"/>
<line x1="1137.872" y1="1238.801" x2="1413.616" y2="1238.801"/>
<line x1="1137.872" y1="1238.801" x2="862.128" y2="1238.801"/>
<line x1="1137.872" y1="1238.801" x2="1137.872" y2="761.199"/>
<line x1="1137.872" y1="1238.801" x2="862.128" y2="761.199"/>
<line x1="1137.872" y1="1238.801" x2="1137.872" y2="1238.801"/>
<line x1="1137.872" y1="1238.801" x2="1000.000" y2="1477.603"/>
<line x1="1137.872" y1="1238.801" x2="1413.616" y2="761.199"/>
<line x1="1137.872" y1="1238.801" x2="724.256" y2="1477.603"/>
<line x1="1137.872" y1="1238.801" x2="724.256" y2="1000.000"/>
<line x1="1137.872" y1="1238.801" x2="1137.872" y2="1716.404"/>
<line x1="1137.872" y1="1238.801" x2="586.384" y2="1238.801"/>
<line x1="1689.360" y1="1238.801" x2="1275.744" y2="1000.000"/>
<line x1="1689.360" y1="1238.801" x2="1551.488" y2="1477.603"/>
<line x1="1689.360" y1="1238.801" x2="1413.616" y2="1238.801"/>
<line x1="1689.360" y1="1238.801" x2="1689.360" y2="761.199"/>
<line x1="1689.360" y1="1238.801" x2="1689.360" y2="1238.801"/>
<line x1="1689.360" y1="1238.801" x2="1413.616" y2="761.199"/>
<line x1="1689.360" y1="1238.801" x2="1137.872" y2="1238.801"/>
<line x1="1689.360" y1="1238.801" x2="1827.232" y2="1000.000"/>
<line x1="1689.360" y1="1238.801" x2="1413.616" y2="1716.404"/>
<line x1="1689.360" y1="1238.801" x2="1827.232" y2="1477.603"/>
<line x1="1413.616" y1="761.199" x2="1275.744" y2="1000.000"/>
<line x1="1413.616" y1="761.199" x2="1000.000" y2="522.397"/>
<line x1="1413.616" y1="761.199" x2="1137.872" y2="761.199"/>
<line x1="1413.616" y1="761.199" x2="1413.616" y2="1238.801"/>
<line x1="1413.616" y1="761.199" x2="1689.360" y2="761.199"/>
<line x1="1413.616" y1="761.199" x2="1413.616" y2="761.199"/>
<line x1="1413.616" y1="761.199" x2="1551.488" y2="522.397"/>
<line x1="1413.616" y1="761.199" x2="862.128" y2="761.199"/>
<line x1="1413.616" y1="761.199" x2="1137.872" y2="283.596"/>
<line x1="862.128" y1="761.199" x2="1275.744" y2="1000.000"/>
<line x1="862.128" y1="761.199" x2="1000.000" y2="522.397"/>
<line x1="862.128" y1="761.199" x2="1137.872" y2="761.199"/>
<line x1="862.128" y1="761.199" x2="862.128" y2="1238.801"/>
<line x1="862.128" y1="761.199" x2="862.128" y2="761.199"/>
<line x1="862.128" y1="761.199" x2="724.256" y2="1000.000"/>
<line x1="862.128" y1="761.199" x2="448.512" y2="1000.000"/>
<line x1="862.128" y1="761.199" x2="724.256" y2="522.397"/>
<line x1="862.128" y1="761.199" x2="448.512" y2="522.397"/>
<line x1="862.128" y1="761.199" x2="586.384" y2="761.199"/>
<line x1="862.128" y1="761.199" x2="862.128" y2="283.596"/>
<line x1="862.128" y1="761.199" x2="586.384" y2="1238.801"/>
<line x1="1275.744" y1="1000.000" x2="1413.616" y2="1238.801"/>
<line x1="1275.744" y1="1000.000" x2="1137.872" y2="761.199"/>
<line x1="1275.744" y1="1000.000" x2="862.128" y2="1238.801"/>
<line x1="1275.744" y1="1000.000" x2="1275.744" y2="1000.000"/>
<line x1="1275.744" y1="1000.000" x2="1689.360" y2="761.199"/>
<line x1="1275.744" y1="1000.000" x2="724.256" y2="1000.000"/>
<line x1="1275.744" y1="1000.000" x2="1000.000" y2="1477.603"/>
<line x1="1275.744" y1="1000.000" x2="1000.000" y2="522.397"/>
<line x1="1551.488" y1="1477.603" x2="1413.616" y2="1238.801"/>
<line x1="1551.488" y1="1477.603" x2="1000.000" y2="1477.603"/>
<line x1="1551.488" y1="1477.603" x2="1275.744" y2="1000.000"/>
<line x1="1551.488" y1="1477.603" x2="1551.488" y2="1477.603"/>
<line x1="1551.488" y1="1477.603" x2="1827.232" y2="1000.000"/>
<line x1="1551.488" y1="1477.603" x2="1137.872" y2="1716.404"/>
<line x1="1551.488" y1="1477.603" x2="1413.616" y2="1716.404"/>
<line x1="1551.488" y1="1477.603" x2="1827.232" y2="1477.603"/>
<line x1="1000.000" y1="522.397" x2="1137.872" y2="761.199"/>
<line x1="1000.000" y1="522.397" x2="724.256" y2="1000.000"/>
<line x1="1000.000" y1="522.397" x2="1000.000" y2="522.397"/>
<line x1="1000.000" y1="522.397" x2="1551.488" y2="522.397"/>
<line x1="1000.000" y1="522.397" x2="586.384" y2="761.199"/>
<line x1="1000.000" y1="522.397" x2="862.128" y2="283.596"/>
<line x1="1000.000" y1="522.397" x2="448.512" y2="522.397"/>
<line x1="1000.000" y1="522.397" x2="724.256" y2="522.397"/>
<line x1="1000.000" y1="522.397" x2="1137.872" y2="283.596"/>
<line x1="1413.616" y1="1238.801" x2="1137.872" y2="761.199"/>
<line x1="1413.616" y1="1238.801" x2="1413.616" y2="1238.801"/>
<line x1="1413.616" y1="1238.801" x2="862.128" y2="1238.801"/>
<line x1="1413.616" y1="1238.801" x2="1827.232" y2="1000.000"/>
<line x1="1413.616" y1="1238.801" x2="1000.000" y2="1477.603"/>
<line x1="1413.616" y1="1238.801" x2="1413.616" y2="1716.404"/>
<line x1="1413.616" y1="1238.801" x2="1689.360" y2="761.199"/>
<line x1="1413.616" y1="1238.801" x2="1137.872" y2="1716.404"/>
<line x1="1137.872" y1="761.199" x2="1137.872" y2="761.199"/>
<line x1="1137.872" y1="761.199" x2="724.256" y2="1000.000"/>
<line x1="1137.872" y1="761.199" x2="1689.360" y2="761.199"/>
<line x1="1137.872" y1="761.199" x2="586.384" y2="761.199"/>
<line x1="1137.872" y1="761.199" x2="724.256" y2="522.397"/>
<line x1="1137.872" y1="761.199" x2="862.128" y2="283.596"/>
<line x1="1137.872" y1="761.199" x2="862.128" y2="1238.801"/>
<line x1="1137.872" y1="761.199" x2="1551.488" y2="522.397"/>
<line x1="1137.872" y1="761.199" x2="1137.872" y2="283.596"/>
<line x1="862.128" y1="1238.801" x2="1000.000" y2="1477.603"/>
<line x1="862.128" y1="1238.801" x2="862.128" y2="1238.801"/>
<line x1="862.128" y1="1238.801" x2="724.256" y2="1000.000"/>
<line x1="862.128" y1="1238.801" x2="724.256" y2="1477.603"/>
<line x1="862.128" y1="1238.801" x2="448.512" y2="1000.000"/>
<line x1="862.128" y1="1238.801" x2="448.512" y2="1477.603"/>
<line x1="862.128" y1="1238.801" x2="586.384" y2="1238.801"/>
<line x1="862.128" y1="1238.801" x2="862.128" y2="1716.404"/>
<line x1="862.128" y1="1238.801" x2="586.384" y2="761.199"/>
<line x1="1689.360" y1="761.199" x2="1551.488" y2="522.397"/>
<line x1="1689.360" y1="761.199" x2="1689.360" y2="761.199"/>
<line x1="1689.360" y1="761.199" x2="1827.232" y2="1000.000"/>
<line x1="1689.360" y1="761.199" x2="1413.616" y2="283.596"/>
<line x1="1689.360" y1="761.199" x2="1827.232" y2="522.397"/>
<line x1="1000.000" y1="1477.603" x2="1000.000" y2="1477.603"/>
<line x1="1000.000" y1="1477.603" x2="724.256" y2="1000.000"/>
<line x1="1000.000" y1="1477.603" x2="862.128" y2="1716.404"/>
<line x1="1000.000" y1="1477.603" x2="586.384" y2="1238.801"/>
<line x1="1000.000" y1="1477.603" x2="448.512" y2="1477.603"/>
<line x1="1000.000" y1="1477.603" x2="724.256" y2="1477.603"/>
<line x1="1000.000" y1="1477.603" x2="1137.872" y2="1716.404"/>
<line x1="1551.488" y1="522.397" x2="1275.744" y2="1000.000"/>
<line x1="1551.488" y1="522.397" x2="1827.232" y2="1000.000"/>
<line x1="1551.488" y1="522.397" x2="1551.488" y2="522.397"/>
<line x1="1551.488" y1="522.397" x2="1137.872" y2="283.596"/>
<line x1="1551.488" y1="522.397" x2="1413.616" y2="283.596"/>
<line x1="1551.488" y1="522.397" x2="1827.232" y2="522.397"/>
<line x1="1137.872" y1="1238.801" x2="862.128" y2="1716.404"/>
<line x1="1413.616" y1="761.199" x2="1827.232" y2="1000.000"/>
<line x1="1413.616" y1="761.199" x2="1413.616" y2="283.596"/>
<line x1="724.256" y1="1000.000" x2="586.384" y2="1238.801"/>
<line x1="724.256" y1="1000.000" x2="586.384" y2="761.199"/>
<line x1="724.256" y1="1000.000" x2="448.512" y2="1000.000"/>
<line x1="724.256" y1="1000.000" x2="724.256" y2="1000.000"/>
<line x1="724.256" y1="1000.000" x2="448.512" y2="522.397"/>
<line x1="724.256" y1="1000.000" x2="724.256" y2="522.397"/>
<line x1="724.256" y1="1000.000" x2="448.512" y2="1477.603"/>
<line x1="724.256" y1="1000.000" x2="724.256" y2="1477.603"/>
<line x1="1827.232" y1="1000.000" x2="1827.232" y2="1000.000"/>
<line x1="1827.232" y1="1000.000" x2="1827.232" y2="1477.603"/>
<line x1="1827.232" y1="1000.000" x2="1827.232" y2="522.397"/>
<line x1="448.512" y1="1000.000" x2="448.512" y2="1000.000"/>
<line x1="448.512" y1="1000.000" x2="310.640" y2="1238.801"/>
<line x1="448.512" y1="1000.000" x2="586.384" y2="1238.801"/>
<line x1="448.512" y1="1000.000" x2="448.512" y2="1477.603"/>
<line x1="448.512" y1="1000.000" x2="724.256" y2="1477.603"/>
<line x1="448.512" y1="1000.000" x2="586.384" y2="761.199"/>
<line x1="448.512" y1="1000.000" x2="310.640" y2="761.199"/>
<line x1="448.512" y1="1000.000" x2="172.768" y2="1000.000"/>
<line x1="448.512" y1="1000.000" x2="448.512" y2="522.397"/>
<line x1="448.512" y1="1000.000" x2="724.256" y2="522.397"/>
<line x1="724.256" y1="1477.603" x2="586.384" y2="1238.801"/>
<line x1="724.256" y1="1477.603" x2="724.256" y2="1477.603"/>
<line x1="724.256" y1="1477.603" x2="310.640" y2="1238.801"/>
<line x1="724.256" y1="1477.603" x2="448.512" y2="1477.603"/>
<line x1="724.256" y1="1477.603" x2="1137.872" y2="1716.404"/>
<line x1="724.256" y1="1477.603" x2="862.128" y2="1716.404"/>
<line x1="724.256" y1="1477.603" x2="586.384" y2="1716.404"/>
<line x1="724.256" y1="522.397" x2="310.640" y2="761.199"/>
<line x1="724.256" y1="522.397" x2="448.512" y2="522.397"/>
<line x1="724.256" y1="522.397" x2="724.256" y2="522.397"/>
<line x1="724.256" y1="522.397" x2="586.384" y2="761.199"/>
<line x1="724.256" y1="522.397" x2="862.128" y2="283.596"/>
<line x1="724.256" y1="522.397" x2="1137.872" y2="283.596"/>
<line x1="724.256" y1="522.397" x2="586.384" y2="283.596"/>
<line x1="586.384" y1="1238.801" x2="310.640" y2="1238.801"/>
<line x1="586.384" y1="1238.801" x2="586.384" y2="761.199"/>
<line x1="586.384" y1="1238.801" x2="310.640" y2="761.199"/>
<line x1="586.384" y1="1238.801" x2="586.384" y2="1238.801"/>
<line x1="586.384" y1="1238.801" x2="448.512" y2="1477.603"/>
<line x1="586.384" y1="1238.801" x2="862.128" y2="1716.404"/>
<line x1="310.640" y1="761.199" x2="724.256" y2="1000.000"/>
<line x1="310.640" y1="761.199" x2="448.512" y2="522.397"/>
<line x1="310.640" y1="761.199" x2="586.384" y2="761.199"/>
<line x1="310.640" y1="761.199" x2="310.640" y2="1238.801"/>
<line x1="310.640" y1="761.199" x2="310.640" y2="761.199"/>
<line x1="310.640" y1="761.199" x2="862.128" y2="761.199"/>
<line x1="310.640" y1="761.199" x2="172.768" y2="1000.000"/>
<line x1="310.640" y1="761.199" x2="586.384" y2="283.596"/>
<line x1="310.640" y1="761.199" x2="172.768" y2="522.397"/>
<line x1="724.256" y1="1000.000" x2="310.640" y2="1238.801"/>
<line x1="448.512" y1="522.397" x2="586.384" y2="761.199"/>
<line x1="448.512" y1="522.397" x2="172.768" y2="1000.000"/>
<line x1="448.512" y1="522.397" x2="448.512" y2="522.397"/>
<line x1="448.512" y1="522.397" x2="862.128" y2="283.596"/>
<line x1="448.512" y1="522.397" x2="586.384" y2="283.596"/>
<line x1="448.512" y1="522.397" x2="172.768" y2="522.397"/>
<line x1="862.128" y1="1238.801" x2="310.640" y2="1238.801"/>
<line x1="862.128" y1="1238.801" x2="1137.872" y2="1716.404"/>
<line x1="586.384" y1="761.199" x2="586.384" y2="761.199"/>
<line x1="586.384" y1="761.199" x2="310.640" y2="1238.801"/>
<line x1="586.384" y1="761.199" x2="862.128" y2="283.596"/>
<line x1="586.384" y1="761.199" x2="172.768" y2="1000.000"/>
<line x1="586.384" y1="761.199" x2="586.384" y2="283.596"/>
<line x1="310.640" y1="1238.801" x2="448.512" y2="1477.603"/>
<line x1="310.640" y1="1238.801" x2="310.640" y2="1238.801"/>
<line x1="310.640" y1="1238.801" x2="172.768" y2="1000.000"/>
<line x1="310.640" y1="1238.801" x2="586.384" y2="1716.404"/>
<line x1="310.640" y1="1238.801" x2="172.768" y2="1477.603"/>
<line x1="448.512" y1="1477.603" x2="448.512" y2="1477.603"/>
<line x1="448.512" y1="1477.603" x2="172.768" y2="1000.000"/>
<line x1="448.512" y1="1477.603" x2="862.128" y2="1716.404"/>
<line x1="448.512" y1="1477.603" x2="586.384" y2="1716.404"/>
<line x1="448.512" y1="1477.603" x2="172.768" y2="1477.603"/>
<line x1="586.384" y1="1238.801" x2="172.768" y2="1000.000"/>
<line x1="586.384" y1="1238.801" x2="586.384" y2="1716.404"/>
<line x1="862.128" y1="761.199" x2="1137.872" y2="283.596"/>
<line x1="172.768" y1="1000.000" x2="172.768" y2="1000.000"/>
<line x1="172.768" y1="1000.000" x2="172.768" y2="522.397"/>
<line x1="172.768" y1="1000.000" x2="172.768" y2="1477.603"/>
<line x1="1137.872" y1="1716.404" x2="862.128" y2="1716.404"/>
<line x1="1137.872" y1="1716.404" x2="1137.872" y2="1716.404"/>
<line x1="1137.872" y1="1716.404" x2="1413.616" y2="1716.404"/>
<line x1="1137.872" y1="1716.404" x2="586.384" y2="1716.404"/>
<line x1="1137.872" y1="1716.404" x2="1000.000" y2="1955.205"/>
<line x1="862.128" y1="1716.404" x2="1413.616" y2="1716.404"/>
<line x1="862.128" y1="1716.404" x2="862.128" y2="1716.404"/>
<line x1="862.128" y1="1716.404" x2="586.384" y2="1716.404"/>
<line x1="862.128" y1="1716.404" x2="1000.000" y2="1955.205"/>
<line x1="1000.000" y1="1477.603" x2="1413.616" y2="1716.404"/>
<line x1="1000.000" y1="1477.603" x2="586.384" y2="1716.404"/>
<line x1="1413.616" y1="1716.404" x2="1413.616" y2="1716.404"/>
<line x1="1413.616" y1="1716.404" x2="1827.232" y2="1477.603"/>
<line x1="1413.616" y1="1716.404" x2="1000.000" y2="1955.205"/>
<line x1="862.128" y1="283.596" x2="1137.872" y2="283.596"/>
<line x1="862.128" y1="283.596" x2="862.128" y2="283.596"/>
<line x1="862.128" y1="283.596" x2="586.384" y2="283.596"/>
<line x1="862.128" y1="283.596" x2="1413.616" y2="283.596"/>
<line x1="862.128" y1="283.596" x2="1000.000" y2="44.794"/>
<line x1="1137.872" y1="283.596" x2="1137.872" y2="283.596"/>
<line x1="1137.872" y1="283.596" x2="586.384" y2="283.596"/>
<line x1="1137.872" y1="283.596" x2="1413.616" y2="283.596"/>
<line x1="1137.872" y1="283.596" x2="1000.000" y2="44.794"/>
<line x1="1000.000" y1="522.397" x2="586.384" y2="283.596"/>
<line x1="1000.000" y1="522.397" x2="1413.616" y2="283.596"/>
<line x1="586.384" y1="283.596" x2="586.384" y2="283.596"/>
<line x1="586.384" y1="283.596" x2="172.768" y2="522.397"/>
<line x1="586.384" y1="283.596" x2="1000.000" y2="44.794"/>
<line x1="586.384" y1="1716.404" x2="586.384" y2="1716.404"/>
<line x1="586.384" y1="1716.404" x2="172.768" y2="1477.603"/>
<line x1="586.384" y1="1716.404" x2="1000.000" y2="1955.205"/>
<line x1="1413.616" y1="283.596" x2="1413.616" y2="283.596"/>
<line x1="1413.616" y1="283.596" x2="1827.232" y2="522.397"/>
<line x1="1413.616" y1="283.596" x2="1000.000" y2="44.794"/>
</g>
<g style="stroke:#000000;stroke-width:3.0;fill:#ff0000">
<circle cx="1827.232" cy="1477.603" r="35.1"/>
<circle cx="172.768" cy="522.397" r="35.1"/>
<circle cx="1827.232" cy="522.397" r="35.1"/>
<circle cx="172.768" cy="1477.603" r="35.1"/>
<circle cx="1000.000" cy="1955.205" r="35.1"/>
<circle cx="1000.000" cy="44.794" r="35.1"/>
</g>
<g style="stroke:#000000;stroke-width:3.0;fill:#ff7f00">
<circle cx="1827.232" cy="1000.000" r="35.1"/>
<circle cx="172.768" cy="1000.000" r="35.1"/>
<circle cx="1413.616" cy="1716.404" r="35.1"/>
<circle cx="586.384" cy="283.596" r="35.1"/>
<circle cx="586.384" cy="1716.404" r="35.1"/>
<circle cx="1413.616" cy="283.596" r="35.1"/>
</g>
<g style="stroke:#000000;stroke-width:3.0;fill:#ffff00">
<circle cx="1689.360" cy="1238.801" r="35.1"/>
<circle cx="1551.488" cy="1477.603" r="35.1"/>
<circle cx="1689.360" cy="761.199" r="35.1"/>
<circle cx="1551.488" cy="522.397" r="35.1"/>
<circle cx="310.640" cy="761.199" r="35.1"/>
<circle cx="448.512" cy="522.397" r="35.1"/>
<circle cx="310.640" cy="1238.801" r="35.1"/>
<circle cx="448.512" cy="1477.603" r="35.1"/>
<circle cx="1137.872" cy="1716.404" r="35.1"/>
<circle cx="862.128" cy="1716.404" r="35.1"/>
<circle cx="862.128" cy="283.596" r="35.1"/>
<circle cx="1137.872" cy="283.596" r="35.1"/>
</g>
<g style="stroke:#000000;stroke-width:3.0;fill:#00ff00">
<circle cx="1551.488" cy="1000.000" r="35.1"/>
<circle cx="1275.744" cy="1477.603" r="35.1"/>
<circle cx="1275.744" cy="522.397" r="35.1"/>
<circle cx="448.512" cy="1000.000" r="35.1"/>
<circle cx="724.256" cy="1477.603" r="35.1"/>
<circle cx="724.256" cy="522.397" r="35.1"/>
</g>
<g style="stroke:#000000;stroke-width:3.0;fill:#00ffff">
<circle cx="1413.616" cy="761.199" r="35.1"/>
<circle cx="1000.000" cy="522.397" r="35.1"/>
<circle cx="1413.616" cy="1238.801" r="35.1"/>
<circle cx="1000.000" cy="1477.603" r="35.1"/>
<circle cx="586.384" cy="1238.801" r="35.1"/>
<circle cx="586.384" cy="761.199" r="35.1"/>
</g>
<g style="stroke:#000000;stroke-width:3.0;fill:#0000ff">
<circle cx="1137.872" cy="1238.801" r="35.1"/>
<circle cx="862.128" cy="761.199" r="35.1"/>
<circle cx="1275.744" cy="1000.000" r="35.1"/>
<circle cx="1137.872" cy="761.199" r="35.1"/>
<circle cx="862.128" cy="1238.801" r="35.1"/>
<circle cx="724.256" cy="1000.000" r="35.1"/>
</g>
<g style="stroke:#000000;stroke-width:3.0;fill:#7f00ff">
<circle cx="1000.000" cy="1000.000" r="35.1"/>
</g>
</svg>
