<?xml version="1.0" encoding="UTF-8" standalone="no"?>
<svg
xmlns="http://www.w3.org/2000/svg"
version="1.0"
width="2000" height="2000"
id="4_21_t0.svg">
<g style="stroke:#000000;stroke-width:6.0;stroke-opacity:0.50;">
<line x1="1473.662" y1="1000.000" x2="1236.831" y2="1410.203"/>
<line x1="1473.662" y1="1000.000" x2="763.169" y2="589.797"/>
<line x1="1473.662" y1="1000.000" x2="763.169" y2="1410.203"/>
<line x1="1473.662" y1="1000.000" x2="1236.831" y2="589.797"/>
<line x1="1473.662" y1="1000.000" x2="526.338" y2="1000.000"/>
<line x1="1473.662" y1="1000.000" x2="1473.662" y2="1000.000"/>
<line x1="1473.662" y1="1000.000" x2="1000.000" y2="1000.000"/>
<line x1="1473.662" y1="1000.000" x2="1710.493" y2="1410.203"/>
<line x1="1473.662" y1="1000.000" x2="1710.493" y2="589.797"/>
<line x1="1473.662" y1="1000.000" x2="1947.323" y2="1000.000"/>
<line x1="1473.662" y1="1000.000" x2="1000.000" y2="1820.406"/>
<line x1="1473.662" y1="1000.000" x2="1473.662" y2="1820.406"/>
<line x1="1473.662" y1="1000.000" x2="1000.000" y2="179.594"/>
<line x1="1473.662" y1="1000.000" x2="1473.662" y2="179.594"/>
<line x1="526.338" y1="1000.000" x2="1236.831" y2="1410.203"/>
<line x1="526.338" y1="1000.000" x2="763.169" y2="589.797"/>
<line x1="526.338" y1="1000.000" x2="763.169" y2="1410.203"/>
<line x1="526.338" y1="1000.000" x2="1236.831" y2="589.797"/>
<line x1="526.338" y1="1000.000" x2="526.338" y2="1000.000"/>
<line x1="526.338" y1="1000.000" x2="1000.000" y2="1000.000"/>
<line x1="526.338" y1="1000.000" x2="289.507" y2="589.797"/>
<line x1="526.338" y1="1000.000" x2="289.507" y2="1410.203"/>
<line x1="526.338" y1="1000.000" x2="52.677" y2="1000.000"/>
<line x1="526.338" y1="1000.000" x2="526.338" y2="1820.406"/>
<line x1="526.338" y1="1000.000" x2="1000.000" y2="1820.406"/>
<line x1="526.338" y1="1000.000" x2="526.338" y2="179.594"/>
<line x1="526.338" y1="1000.000" x2="1000.000" y2="179.594"/>
<line x1="1236.831" y1="1410.203" x2="763.169" y2="1410.203"/>
<line x1="1236.831" y1="1410.203" x2="1236.831" y2="589.797"/>
<line x1="1236.831" y1="1410.203" x2="763.169" y2="589.797"/>
<line x1="1236.831" y1="1410.203" x2="1236.831" y2="1410.203"/>
<line x1="1236.831" y1="1410.203" x2="1000.000" y2="1000.000"/>
<line x1="1236.831" y1="1410.203" x2="1710.493" y2="1410.203"/>
<line x1="1236.831" y1="1410.203" x2="1000.000" y2="1820.406"/>
<line x1="1236.831" y1="1410.203" x2="1473.662" y2="1820.406"/>
<line x1="1236.831" y1="1410.203" x2="1710.493" y2="589.797"/>
<line x1="1236.831" y1="1410.203" x2="1947.323" y2="1000.000"/>
<line x1="1236.831" y1="1410.203" x2="289.507" y2="1410.203"/>
<line x1="1236.831" y1="1410.203" x2="526.338" y2="1820.406"/>
<line x1="763.169" y1="589.797" x2="763.169" y2="1410.203"/>
<line x1="763.169" y1="589.797" x2="1236.831" y2="589.797"/>
<line x1="763.169" y1="589.797" x2="763.169" y2="589.797"/>
<line x1="763.169" y1="589.797" x2="1000.000" y2="1000.000"/>
<line x1="763.169" y1="589.797" x2="289.507" y2="589.797"/>
<line x1="763.169" y1="589.797" x2="1000.000" y2="179.594"/>
<line x1="763.169" y1="589.797" x2="526.338" y2="179.594"/>
<line x1="763.169" y1="589.797" x2="1473.662" y2="179.594"/>
<line x1="763.169" y1="589.797" x2="1710.493" y2="589.797"/>
<line x1="763.169" y1="589.797" x2="52.677" y2="1000.000"/>
<line x1="763.169" y1="589.797" x2="289.507" y2="1410.203"/>
<line x1="763.169" y1="1410.203" x2="1236.831" y2="589.797"/>
<line x1="763.169" y1="1410.203" x2="763.169" y2="1410.203"/>
<line x1="763.169" y1="1410.203" x2="1000.000" y2="1000.000"/>
<line x1="763.169" y1="1410.203" x2="289.507" y2="1410.203"/>
<line x1="763.169" y1="1410.203" x2="1000.000" y2="1820.406"/>
<line x1="763.169" y1="1410.203" x2="526.338" y2="1820.406"/>
<line x1="763.169" y1="1410.203" x2="1710.493" y2="1410.203"/>
<line x1="763.169" y1="1410.203" x2="1473.662" y2="1820.406"/>
<line x1="763.169" y1="1410.203" x2="289.507" y2="589.797"/>
<line x1="763.169" y1="1410.203" x2="52.677" y2="1000.000"/>
<line x1="1236.831" y1="589.797" x2="1236.831" y2="589.797"/>
<line x1="1236.831" y1="589.797" x2="1000.000" y2="1000.000"/>
<line x1="1236.831" y1="589.797" x2="1710.493" y2="589.797"/>
<line x1="1236.831" y1="589.797" x2="1000.000" y2="179.594"/>
<line x1="1236.831" y1="589.797" x2="1473.662" y2="179.594"/>
<line x1="1236.831" y1="589.797" x2="1947.323" y2="1000.000"/>
<line x1="1236.831" y1="589.797" x2="1710.493" y2="1410.203"/>
<line x1="1236.831" y1="589.797" x2="526.338" y2="179.594"/>
<line x1="1236.831" y1="589.797" x2="289.507" y2="589.797"/>
<line x1="1000.000" y1="1000.000" x2="1000.000" y2="1000.000"/>
<line x1="1000.000" y1="1000.000" x2="1000.000" y2="1820.406"/>
<line x1="1000.000" y1="1000.000" x2="1710.493" y2="1410.203"/>
<line x1="1000.000" y1="1000.000" x2="1710.493" y2="589.797"/>
<line x1="1000.000" y1="1000.000" x2="1000.000" y2="179.594"/>
<line x1="1000.000" y1="1000.000" x2="289.507" y2="1410.203"/>
<line x1="1000.000" y1="1000.000" x2="289.507" y2="589.797"/>
<line x1="1000.000" y1="1000.000" x2="1473.662" y2="1820.406"/>
<line x1="1000.000" y1="1000.000" x2="1947.323" y2="1000.000"/>
<line x1="1000.000" y1="1000.000" x2="1473.662" y2="179.594"/>
<line x1="1000.000" y1="1000.000" x2="526.338" y2="1820.406"/>
<line x1="1000.000" y1="1000.000" x2="52.677" y2="1000.000"/>
<line x1="1000.000" y1="1000.000" x2="526.338" y2="179.594"/>
<line x1="1710.493" y1="1410.203" x2="1710.493" y2="589.797"/>
<line x1="1710.493" y1="1410.203" x2="1947.323" y2="1000.000"/>
<line x1="1710.493" y1="1410.203" x2="1710.493" y2="1410.203"/>
<line x1="1710.493" y1="1410.203" x2="1000.000" y2="1820.406"/>
<line x1="1710.493" y1="1410.203" x2="1473.662" y2="1820.406"/>
<line x1="289.507" y1="589.797" x2="289.507" y2="1410.203"/>
<line x1="289.507" y1="589.797" x2="52.677" y2="1000.000"/>
<line x1="289.507" y1="589.797" x2="289.507" y2="589.797"/>
<line x1="289.507" y1="589.797" x2="1000.000" y2="179.594"/>
<line x1="289.507" y1="589.797" x2="526.338" y2="179.594"/>
<line x1="1710.493" y1="589.797" x2="1947.323" y2="1000.000"/>
<line x1="1710.493" y1="589.797" x2="1710.493" y2="589.797"/>
<line x1="1710.493" y1="589.797" x2="1000.000" y2="179.594"/>
<line x1="1710.493" y1="589.797" x2="1473.662" y2="179.594"/>
<line x1="289.507" y1="1410.203" x2="52.677" y2="1000.000"/>
<line x1="289.507" y1="1410.203" x2="289.507" y2="1410.203"/>
<line x1="289.507" y1="1410.203" x2="1000.000" y2="1820.406"/>
<line x1="289.507" y1="1410.203" x2="526.338" y2="1820.406"/>
<line x1="1947.323" y1="1000.000" x2="1473.662" y2="1820.406"/>
<line x1="1947.323" y1="1000.000" x2="1947.323" y2="1000.000"/>
<line x1="1947.323" y1="1000.000" x2="1473.662" y2="179.594"/>
<line x1="52.677" y1="1000.000" x2="526.338" y2="1820.406"/>
<line x1="52.677" y1="1000.000" x2="52.677" y2="1000.000"/>
<line x1="52.677" y1="1000.000" x2="526.338" y2="179.594"/>
<line x1="1000.000" y1="1820.406" x2="1473.662" y2="1820.406"/>
<line x1="1000.000" y1="1820.406" x2="1000.000" y2="1820.406"/>
<line x1="1000.000" y1="1820.406" x2="526.338" y2="1820.406"/>
<line x1="1000.000" y1="179.594" x2="526.338" y2="179.594"/>
<line x1="1000.000" y1="179.594" x2="1000.000" y2="179.594"/>
<line x1="1000.000" y1="179.594" x2="1473.662" y2="179.594"/>
<line x1="1473.662" y1="1820.406" x2="1473.662" y2="1820.406"/>
<line x1="1473.662" y1="1820.406" x2="526.338" y2="1820.406"/>
<line x1="526.338" y1="179.594" x2="1473.662" y2="179.594"/>
<line x1="526.338" y1="179.594" x2="526.338" y2="179.594"/>
<line x1="526.338" y1="1820.406" x2="526.338" y2="1820.406"/>
<line x1="1473.662" y1="179.594" x2="1473.662" y2="179.594"/>
</g>
<g style="stroke:#000000;stroke-width:3.0;fill:#ff0000">
<circle cx="1947.323" cy="1000.000" r="43.1"/>
<circle cx="52.677" cy="1000.000" r="43.1"/>
<circle cx="1473.662" cy="1820.406" r="43.1"/>
<circle cx="526.338" cy="179.594" r="43.1"/>
<circle cx="526.338" cy="1820.406" r="43.1"/>
<circle cx="1473.662" cy="179.594" r="43.1"/>
</g>
<g style="stroke:#000000;stroke-width:3.0;fill:#ff7f00">
<circle cx="1710.493" cy="1410.203" r="43.1"/>
<circle cx="289.507" cy="589.797" r="43.1"/>
<circle cx="1710.493" cy="589.797" r="43.1"/>
<circle cx="289.507" cy="1410.203" r="43.1"/>
<circle cx="1000.000" cy="1820.406" r="43.1"/>
<circle cx="1000.000" cy="179.594" r="43.1"/>
</g>
<g style="stroke:#000000;stroke-width:3.0;fill:#ffff00">
<circle cx="1473.662" cy="1000.000" r="43.1"/>
<circle cx="526.338" cy="1000.000" r="43.1"/>
<circle cx="1236.831" cy="1410.203" r="43.1"/>
<circle cx="763.169" cy="589.797" r="43.1"/>
<circle cx="763.169" cy="1410.203" r="43.1"/>
<circle cx="1236.831" cy="589.797" r="43.1"/>
</g>
<g style="stroke:#000000;stroke-width:3.0;fill:#00ff00">
<circle cx="1000.000" cy="1000.000" r="43.1"/>
</g>
</svg>
